<?xml version="1.0" standalone="no"?>
<!DOCTYPE svg PUBLIC "-//W3C//DTD SVG 20010904//EN"
 "http://www.w3.org/TR/2001/REC-SVG-20010904/DTD/svg10.dtd">
<svg version="1.0" xmlns="http://www.w3.org/2000/svg"
 width="70.000000pt" height="70.000000pt" viewBox="0 0 70.000000 70.000000"
 preserveAspectRatio="xMidYMid meet">
<metadata>
Created by potrace 1.11, written by Peter Selinger 2001-2013
</metadata>
<g transform="translate(0.000000,70.000000) scale(0.100000,-0.100000)"
fill="#000000" stroke="none">
<path d="M179 548 c-10 -34 -6 -44 16 -46 20 -1 25 3 25 23 0 18 -5 25 -20 25
-11 0 -20 -1 -21 -2z"/>
<path d="M280 526 c0 -21 4 -25 23 -22 14 2 22 10 22 22 0 12 -8 20 -22 22
-19 3 -23 -1 -23 -22z"/>
<path d="M389 548 c-6 -23 -6 -58 1 -58 24 0 40 15 40 36 0 17 -6 24 -20 24
-11 0 -20 -1 -21 -2z"/>
<path d="M450 490 c-8 -6 -78 -36 -155 -69 l-140 -59 -3 -71 -3 -71 119 0 119
0 -2 45 c-2 25 0 45 4 46 34 5 93 4 102 -2 7 -4 12 -24 13 -46 1 -31 5 -39 24
-41 21 -3 22 0 22 57 0 51 -3 61 -20 66 -22 7 -22 9 -25 75 -1 25 -3 53 -4 63
-1 18 -26 22 -51 7z m-187 -179 c4 -1 6 -15 4 -33 -3 -26 -8 -32 -25 -31 -38
2 -40 3 -45 22 -7 28 11 51 36 47 12 -3 26 -5 30 -5z m85 0 c22 -1 11 -64 -12
-67 -31 -4 -46 7 -46 35 0 33 6 40 28 36 9 -2 23 -4 30 -4z"/>
<path d="M220 280 c0 -5 4 -10 9 -10 6 0 13 5 16 10 3 6 -1 10 -9 10 -9 0 -16
-4 -16 -10z"/>
<path d="M310 280 c0 -5 7 -10 15 -10 8 0 15 5 15 10 0 6 -7 10 -15 10 -8 0
-15 -4 -15 -10z"/>
<path d="M172 445 c-1 -37 8 -48 32 -39 10 4 16 18 16 40 0 29 -3 34 -23 34
-20 0 -24 -5 -25 -35z"/>
<path d="M280 461 c0 -14 5 -18 19 -14 31 8 35 33 6 33 -18 0 -25 -5 -25 -19z"/>
<path d="M411 278 c-3 -9 -6 -41 -6 -70 l1 -53 38 -3 37 -3 -3 72 c-3 72 -3
72 -32 74 -18 0 -30 -5 -35 -17z"/>
<path d="M150 175 l0 -25 119 0 c116 0 118 0 117 23 -1 21 -5 22 -118 25
l-118 3 0 -26z"/>
<path d="M500 175 c0 -20 5 -25 25 -25 20 0 25 5 25 25 0 20 -5 25 -25 25 -20
0 -25 -5 -25 -25z"/>
</g>
</svg>
